<?xml version="1.0" encoding="UTF-8" standalone="no"?>
<!-- Created with Inkscape (http://www.inkscape.org/) -->

<svg
   xmlns:dc="http://purl.org/dc/elements/1.1/"
   xmlns:cc="http://creativecommons.org/ns#"
   xmlns:rdf="http://www.w3.org/1999/02/22-rdf-syntax-ns#"
   xmlns:svg="http://www.w3.org/2000/svg"
   xmlns="http://www.w3.org/2000/svg"
   xmlns:sodipodi="http://sodipodi.sourceforge.net/DTD/sodipodi-0.dtd"
   xmlns:inkscape="http://www.inkscape.org/namespaces/inkscape"
   width="1242"
   height="2436"
   viewBox="0 0 328.61249 644.52502"
   version="1.1"
   id="svg8"
   inkscape:export-filename="/home/hans/workspace-welinux/webmonitor/assets/images/splash.png"
   inkscape:export-xdpi="129"
   inkscape:export-ydpi="129"
   inkscape:version="0.92.3 (2405546, 2018-03-11)"
   sodipodi:docname="splash.svg">
  <defs
     id="defs2">
    <style
       id="style4529"
       type="text/css">
   <![CDATA[
    .str0 {stroke:#1F1A17;stroke-width:0.0762}
    .fil1 {fill:#5F4E5D}
    .fil0 {fill:#EFF0F1}
   ]]>
  </style>
    <style
       id="style4552"
       type="text/css">
   <![CDATA[
    .str0 {stroke:#1F1A17;stroke-width:0.0762}
    .fil1 {fill:#5F4E5D}
    .fil0 {fill:#EFF0F1}
   ]]>
  </style>
  </defs>
  <sodipodi:namedview
     id="base"
     pagecolor="#d9b5d5"
     bordercolor="#666666"
     borderopacity="1.0"
     inkscape:pageopacity="0"
     inkscape:pageshadow="2"
     inkscape:zoom="0.35"
     inkscape:cx="241.42857"
     inkscape:cy="1245.7143"
     inkscape:document-units="mm"
     inkscape:current-layer="layer1"
     showgrid="false"
     units="px"
     inkscape:window-width="1855"
     inkscape:window-height="1056"
     inkscape:window-x="65"
     inkscape:window-y="24"
     inkscape:window-maximized="1" />
  <metadata
     id="metadata5">
    <rdf:RDF>
      <cc:Work
         rdf:about="">
        <dc:format>image/svg+xml</dc:format>
        <dc:type
           rdf:resource="http://purl.org/dc/dcmitype/StillImage" />
        <dc:title></dc:title>
      </cc:Work>
    </rdf:RDF>
  </metadata>
  <g
     inkscape:label="Capa 1"
     inkscape:groupmode="layer"
     id="layer1"
     transform="translate(0,347.52502)">
    <g
       style="clip-rule:evenodd;opacity:0.172;fill-rule:evenodd;image-rendering:optimizeQuality;shape-rendering:geometricPrecision;text-rendering:geometricPrecision"
       id="g4550"
       transform="matrix(4.0478148,0,0,4.0478148,-338.45765,-284.1651)">
      <g
         id="Layer_x0020_1">
  <metadata
   id="CorelCorpID_0Corel-Layer" />

  <g
   id="_75450784">
   <path
   d="m 190.678,58.1414 c -5.132,8.8336 -11.3853,16.3633 -18.8283,22.6218 -17.8428,15.1572 -40.0362,22.7197 -66.5114,22.7197 -26.4752,0 -48.7023,-7.5625 -66.6135,-22.7197 C 31.2819,74.5047 24.9945,66.975 19.7946,58.1414 24.9945,49.2753 31.2819,41.7128 38.7248,35.3893 56.636,20.232 78.8631,12.6696 105.3383,12.6696 c 26.4752,0 48.6686,7.5624 66.5114,22.7197 7.443,6.3235 13.6963,13.886 18.8283,22.7521 z"
   class="fil0 str0"
   id="_75181136"
   inkscape:connector-curvature="0"
   style="fill:#eff0f1;stroke:#1f1a17;stroke-width:0.0762" />

   <path
   d="m 134.153,58.5829 c 0,7.8376 -2.8614,14.5556 -8.543,20.1539 -5.7227,5.5984 -12.6062,8.377 -20.6099,8.377 -8.0865,0 -14.9705,-2.7786 -20.6517,-8.377 -5.6811,-5.5983 -8.5013,-12.3163 -8.5013,-20.1539 0,-3.4835 0.6221,-6.8836 1.825,-10.1182 L 107.4466,61.9835 93.4718,32.4573 c 3.649,-1.6173 7.4645,-2.4465 11.5283,-2.4465 8.0037,0 14.8872,2.7786 20.6099,8.3769 5.6816,5.5983 8.543,12.3163 8.543,20.1952 z m 9.3717,0 c 0,-10.367 -3.7734,-19.2416 -11.3211,-26.6232 -7.5055,-7.3812 -16.5873,-11.0723 -27.2035,-11.0723 -5.5984,0 -10.9063,1.1613 -15.9242,3.4007 l -3.981,-9.0818 c -29.4018,5.0179 -50.9242,19.4492 -64.5258,43.3766 3.981,6.9668 8.7497,13.146 14.348,18.5783 13.5193,13.0211 30.1066,21.232 49.8046,24.6743 C 76.2203,98.02 69.3779,92.2145 64.1945,84.4596 59.011,76.6635 56.3984,68.0378 56.3984,58.5829 c 0,-5.7639 1.0364,-11.3623 3.0269,-16.795 l 9.7455,3.0274 c -1.7834,4.4786 -2.6954,9.0401 -2.6954,13.7676 0,10.409 3.7734,19.3247 11.3211,26.6648 7.5056,7.2984 16.5873,10.9894 27.2036,10.9894 10.6162,0 19.698,-3.691 27.2035,-10.9894 7.5477,-7.3401 11.3211,-16.2558 11.3211,-26.6648 z m 45.9063,0 C 185.4916,51.616 180.6397,45.3545 174.9998,39.839 161.3566,26.7346 144.6032,18.5237 124.6981,15.2063 c 8.6668,3.6906 15.6336,9.4133 20.9004,17.1266 5.3495,7.9209 8.0032,16.6706 8.0032,26.25 0,9.4549 -2.6126,18.0806 -7.8377,25.8767 -5.2251,7.7549 -12.1086,13.5604 -20.6099,17.3759 29.3185,-5.0596 50.7581,-19.4492 64.2769,-43.2526 z m 19.8224,0 c -6.262,11.2382 -13.892,20.8176 -22.9737,28.7797 -21.7713,19.2831 -48.851,28.9041 -81.1552,28.9041 -32.3043,0 -59.4251,-9.621 -81.2797,-28.9041 C 14.7631,79.4005 7.0915,69.8211 0.7467,58.5829 7.0915,47.3034 14.7631,37.6824 23.8448,29.6376 45.6994,10.3544 72.8202,0.7334 105.1245,0.7334 c 32.3042,0 59.3839,9.621 81.1552,28.9042 9.0817,8.0448 16.7117,17.6658 22.9737,28.9453 z"
   class="fil1 str0"
   id="_75708432"
   inkscape:connector-curvature="0"
   style="fill:#5f4e5d;stroke:#1f1a17;stroke-width:0.0762" />

  </g>

 </g>
    </g>
    <g
       style="clip-rule:evenodd;fill-rule:evenodd;image-rendering:optimizeQuality;shape-rendering:geometricPrecision;text-rendering:geometricPrecision"
       id="g4573"
       transform="translate(51.825755,-105.17377)">
      <g
         id="Layer_x0020_1-3">
  <metadata
   id="CorelCorpID_0Corel-Layer-6" />

  <g
   id="_75450784-7">
   <path
   d="m 190.678,58.1414 c -5.132,8.8336 -11.3853,16.3633 -18.8283,22.6218 -17.8428,15.1572 -40.0362,22.7197 -66.5114,22.7197 -26.4752,0 -48.7023,-7.5625 -66.6135,-22.7197 C 31.2819,74.5047 24.9945,66.975 19.7946,58.1414 24.9945,49.2753 31.2819,41.7128 38.7248,35.3893 56.636,20.232 78.8631,12.6696 105.3383,12.6696 c 26.4752,0 48.6686,7.5624 66.5114,22.7197 7.443,6.3235 13.6963,13.886 18.8283,22.7521 z"
   class="fil0 str0"
   id="_75181136-5"
   inkscape:connector-curvature="0"
   style="fill:#eff0f1;stroke:#1f1a17;stroke-width:0.0762" />

   <path
   d="m 134.153,58.5829 c 0,7.8376 -2.8614,14.5556 -8.543,20.1539 -5.7227,5.5984 -12.6062,8.377 -20.6099,8.377 -8.0865,0 -14.9705,-2.7786 -20.6517,-8.377 -5.6811,-5.5983 -8.5013,-12.3163 -8.5013,-20.1539 0,-3.4835 0.6221,-6.8836 1.825,-10.1182 L 107.4466,61.9835 93.4718,32.4573 c 3.649,-1.6173 7.4645,-2.4465 11.5283,-2.4465 8.0037,0 14.8872,2.7786 20.6099,8.3769 5.6816,5.5983 8.543,12.3163 8.543,20.1952 z m 9.3717,0 c 0,-10.367 -3.7734,-19.2416 -11.3211,-26.6232 -7.5055,-7.3812 -16.5873,-11.0723 -27.2035,-11.0723 -5.5984,0 -10.9063,1.1613 -15.9242,3.4007 l -3.981,-9.0818 c -29.4018,5.0179 -50.9242,19.4492 -64.5258,43.3766 3.981,6.9668 8.7497,13.146 14.348,18.5783 13.5193,13.0211 30.1066,21.232 49.8046,24.6743 C 76.2203,98.02 69.3779,92.2145 64.1945,84.4596 59.011,76.6635 56.3984,68.0378 56.3984,58.5829 c 0,-5.7639 1.0364,-11.3623 3.0269,-16.795 l 9.7455,3.0274 c -1.7834,4.4786 -2.6954,9.0401 -2.6954,13.7676 0,10.409 3.7734,19.3247 11.3211,26.6648 7.5056,7.2984 16.5873,10.9894 27.2036,10.9894 10.6162,0 19.698,-3.691 27.2035,-10.9894 7.5477,-7.3401 11.3211,-16.2558 11.3211,-26.6648 z m 45.9063,0 C 185.4916,51.616 180.6397,45.3545 174.9998,39.839 161.3566,26.7346 144.6032,18.5237 124.6981,15.2063 c 8.6668,3.6906 15.6336,9.4133 20.9004,17.1266 5.3495,7.9209 8.0032,16.6706 8.0032,26.25 0,9.4549 -2.6126,18.0806 -7.8377,25.8767 -5.2251,7.7549 -12.1086,13.5604 -20.6099,17.3759 29.3185,-5.0596 50.7581,-19.4492 64.2769,-43.2526 z m 19.8224,0 c -6.262,11.2382 -13.892,20.8176 -22.9737,28.7797 -21.7713,19.2831 -48.851,28.9041 -81.1552,28.9041 -32.3043,0 -59.4251,-9.621 -81.2797,-28.9041 C 14.7631,79.4005 7.0915,69.8211 0.7467,58.5829 7.0915,47.3034 14.7631,37.6824 23.8448,29.6376 45.6994,10.3544 72.8202,0.7334 105.1245,0.7334 c 32.3042,0 59.3839,9.621 81.1552,28.9042 9.0817,8.0448 16.7117,17.6658 22.9737,28.9453 z"
   class="fil1 str0"
   id="_75708432-3"
   inkscape:connector-curvature="0"
   style="fill:#5f4e5d;stroke:#1f1a17;stroke-width:0.0762" />

  </g>

 </g>
    </g>
  </g>
</svg>
